<?xml version="1.0" standalone="no"?>
<!DOCTYPE svg PUBLIC "-//W3C//DTD SVG 20010904//EN"
 "http://www.w3.org/TR/2001/REC-SVG-20010904/DTD/svg10.dtd">
<svg version="1.0" xmlns="http://www.w3.org/2000/svg"
 width="1024.000000pt" height="1024.000000pt" viewBox="0 0 1024.000000 1024.000000"
 preserveAspectRatio="xMidYMid meet">
<metadata>
Created by potrace 1.11, written by Peter Selinger 2001-2013
</metadata>
<g transform="translate(0.000000,1024.000000) scale(0.100000,-0.100000)"
fill="#000000" stroke="none">
<path d="M7660 7016 c-22 -59 -276 -761 -405 -1116 -80 -223 -153 -423 -161
-445 -9 -22 -36 -96 -61 -165 -25 -69 -63 -174 -85 -235 -21 -60 -49 -137 -60
-170 -11 -33 -25 -71 -31 -85 -6 -14 -11 -27 -12 -30 -1 -3 -7 -18 -13 -33 -7
-16 -12 -31 -12 -35 0 -4 -13 -41 -29 -82 -21 -55 -30 -69 -34 -55 -19 65 -80
275 -87 300 -11 39 -87 301 -139 481 -23 76 -48 162 -56 189 -8 28 -82 284
-165 570 -152 527 -168 583 -214 735 -13 47 -31 108 -39 135 -17 59 -6 79 -96
-175 -191 -536 -307 -864 -365 -1025 -26 -71 -49 -137 -51 -145 -2 -8 -20 -60
-40 -115 -21 -56 -35 -111 -32 -125 4 -21 103 -359 222 -755 96 -320 245 -823
258 -870 3 -11 24 -81 47 -155 23 -74 43 -142 45 -151 2 -9 15 -54 30 -100 15
-46 28 -92 30 -102 2 -10 7 -27 10 -38 6 -18 23 -19 604 -19 471 0 598 3 598
13 1 6 56 161 122 342 67 182 124 337 126 345 5 20 534 1479 545 1505 5 11 32
85 61 165 49 138 68 184 69 168 0 -9 106 -342 340 -1073 23 -71 54 -170 70
-220 15 -49 78 -247 140 -440 178 -558 250 -785 250 -791 0 -3 267 -4 593 -2
585 3 592 3 591 23 -1 11 -75 234 -164 495 -89 261 -175 513 -190 560 -16 47
-88 258 -160 470 -72 212 -149 437 -170 500 -21 63 -95 282 -165 485 -70 204
-128 375 -129 380 -2 6 -6 17 -9 25 -3 8 -51 150 -107 315 -175 518 -182 540
-191 556 -7 14 -73 16 -639 16 -632 0 -632 0 -640 -21z"/>
<path d="M2099 7026 c-2 -2 -44 -6 -94 -10 -49 -3 -101 -8 -114 -11 -12 -2
-42 -7 -65 -9 -22 -3 -52 -8 -66 -11 -14 -3 -41 -8 -60 -11 -19 -3 -87 -19
-150 -35 -639 -159 -1111 -512 -1369 -1025 -161 -321 -214 -712 -146 -1083 33
-183 74 -306 150 -461 311 -630 946 -1044 1770 -1152 78 -10 361 -13 1270 -13
l1169 0 69 185 c38 102 85 226 104 275 19 50 36 95 37 100 2 6 10 27 19 49 9
21 17 41 17 43 0 5 216 586 335 903 37 96 68 182 70 190 2 8 43 119 91 245
114 305 311 831 365 975 23 63 64 174 91 245 27 72 53 141 58 155 4 14 44 121
88 238 44 118 74 212 68 213 -18 1 -1029 1 -1046 0 -9 -1 -22 -18 -30 -38 -7
-21 -20 -54 -28 -73 -9 -19 -16 -37 -16 -40 -1 -5 -45 -115 -71 -175 -7 -16
-102 -250 -210 -520 -109 -269 -202 -501 -208 -515 -5 -14 -11 -29 -13 -35 -3
-16 -63 -158 -74 -177 -6 -10 -10 -22 -10 -28 0 -6 -9 -29 -20 -53 -10 -23
-41 -98 -68 -167 -69 -175 -152 -381 -163 -405 -17 -38 -226 -560 -233 -582
-4 -13 -10 -23 -14 -24 -4 0 -326 -1 -717 -1 -771 0 -795 1 -990 57 -162 47
-349 151 -456 256 -48 46 -127 156 -158 218 -59 116 -83 221 -85 376 -5 269
120 523 344 697 182 141 452 231 715 238 49 1 476 3 948 3 l859 2 69 170 c38
94 73 179 78 190 5 11 52 126 105 255 52 129 108 268 125 308 l30 72 -1183 0
c-651 0 -1185 -2 -1187 -4z"/>
</g>
</svg>
