<?xml version="1.0" standalone="no"?>
<!DOCTYPE svg PUBLIC "-//W3C//DTD SVG 20010904//EN"
 "http://www.w3.org/TR/2001/REC-SVG-20010904/DTD/svg10.dtd">
<svg version="1.0" xmlns="http://www.w3.org/2000/svg"
 width="451.000000pt" height="451.000000pt" viewBox="0 0 451.000000 451.000000"
 preserveAspectRatio="xMidYMid meet">
<metadata>
Created by potrace 1.11, written by Peter Selinger 2001-2013
</metadata>
<g transform="translate(0.000000,451.000000) scale(0.100000,-0.100000)"
fill="#000000" stroke="none">
<path d="M2089 4166 c-2 -2 -43 -7 -90 -10 -47 -4 -94 -8 -105 -10 -10 -2 -41
-7 -69 -10 -221 -29 -517 -117 -733 -217 -45 -21 -83 -38 -85 -37 -7 3 -226
-138 -298 -192 -146 -112 -315 -290 -416 -440 -124 -183 -227 -437 -259 -634
-3 -21 -7 -47 -9 -58 -10 -51 -17 -163 -17 -264 0 -149 6 -214 38 -389 3 -16
14 -61 25 -100 112 -389 355 -736 694 -990 38 -29 54 -40 170 -114 136 -88
489 -238 625 -266 8 -2 33 -8 55 -13 65 -18 255 -52 370 -67 28 -4 313 -9 635
-12 l585 -5 84 209 c46 114 89 222 96 238 19 42 215 534 215 539 0 2 -312 3
-692 3 -381 0 -724 3 -763 7 -160 17 -349 74 -481 145 -305 165 -473 442 -468
771 4 244 85 434 258 605 142 140 326 235 551 286 131 29 214 31 1157 32 l896
0 11 25 c7 13 66 158 132 321 67 163 127 310 134 326 7 17 40 96 73 178 l60
147 -1188 0 c-653 -1 -1189 -2 -1191 -4z"/>
</g>
</svg>
